<svg class="docker_logo " id="Layer_1" data-name="Layer 1" xmlns="http://www.w3.org/2000/svg"   viewBox="0 0 675 537.22">
    <path class="cls-1" fill="#1d63ed"
        d="m664.01,223.35c-16.55-11.14-60.03-15.89-91.64-7.38-1.7-31.49-17.94-58.03-47.65-81.17l-10.99-7.38-7.33,11.07c-14.4,21.86-20.47,51-18.33,77.49,1.7,16.32,7.37,34.66,18.33,47.97-41.15,23.87-79.07,18.45-247.03,18.45H.06c-.76,37.93,5.34,110.88,51.73,170.27,5.12,6.56,10.74,12.91,16.84,19.02,37.72,37.77,94.71,65.47,179.93,65.54,130,.12,241.39-70.16,309.15-240.07,22.3.37,81.15,3.99,109.95-51.66.7-.94,7.33-14.76,7.33-14.76l-10.98-7.38Zm-494.72-39.14h-72.92v72.92h72.92v-72.92Zm94.21,0h-72.92v72.92h72.92v-72.92Zm94.21,0h-72.92v72.92h72.92v-72.92Zm94.21,0h-72.92v72.92h72.92v-72.92Zm-376.82,0H2.16v72.92h72.92v-72.92Zm94.21-92.11h-72.92v72.92h72.92v-72.92Zm94.21,0h-72.92v72.92h72.92v-72.92Zm94.21,0h-72.92v72.92h72.92v-72.92ZM357.7,0h-72.92v72.92h72.92V0Z"></path>
</svg>