<svg width="207" height="78" viewBox="0 0 207 78" fill="none" xmlns="http://www.w3.org/2000/svg">
<path d="M16.1988 24.0994C15.7988 24.0994 15.6988 23.8994 15.8988 23.5994L17.9988 20.8994C18.1988 20.5994 18.6988 20.3994 19.0988 20.3994H54.7988C55.1988 20.3994 55.2988 20.6994 55.0988 20.9994L53.3988 23.5994C53.1988 23.8994 52.6988 24.1994 52.3988 24.1994L16.1988 24.0994Z" fill="#00ACD7"/>
<path d="M1.09922 33.2996C0.69922 33.2996 0.599218 33.0996 0.799218 32.7996L2.89922 30.0996C3.09922 29.7996 3.59922 29.5996 3.99922 29.5996H49.5992C49.9992 29.5996 50.1992 29.8996 50.0992 30.1996L49.2992 32.5996C49.1992 32.9996 48.7992 33.1996 48.3992 33.1996L1.09922 33.2996Z" fill="#00ACD7"/>
<path d="M25.2984 42.4998C24.8984 42.4998 24.7984 42.1998 24.9984 41.8998L26.3984 39.3998C26.5984 39.0998 26.9984 38.7998 27.3984 38.7998H47.3984C47.7984 38.7998 47.9984 39.0998 47.9984 39.4998L47.7984 41.8998C47.7984 42.2998 47.3984 42.5998 47.0984 42.5998L25.2984 42.4998Z" fill="#00ACD7"/>
<path d="M129.1 22.2996C122.8 23.8996 118.5 25.0996 112.3 26.6996C110.8 27.0996 110.7 27.1996 109.4 25.6996C107.9 23.9996 106.8 22.8996 104.7 21.8996C98.3999 18.7996 92.2999 19.6996 86.5999 23.3996C79.7999 27.7996 76.2999 34.2996 76.3999 42.3996C76.4999 50.3996 81.9999 56.9996 89.8999 58.0996C96.6999 58.9996 102.4 56.5996 106.9 51.4996C107.8 50.3996 108.6 49.1996 109.6 47.7996C106 47.7996 101.5 47.7996 90.2999 47.7996C88.1999 47.7996 87.6999 46.4996 88.3999 44.7996C89.6999 41.6996 92.0999 36.4996 93.4999 33.8996C93.7999 33.2996 94.4999 32.2996 95.9999 32.2996C101.1 32.2996 119.9 32.2996 132.4 32.2996C132.2 34.9996 132.2 37.6996 131.8 40.3996C130.7 47.5996 128 54.1996 123.6 59.9996C116.4 69.4996 107 75.3996 95.0999 76.9996C85.2999 78.2996 76.1999 76.3996 68.1999 70.3996C60.7999 64.7996 56.5999 57.3996 55.4999 48.1996C54.1999 37.2996 57.3999 27.4996 63.9999 18.8996C71.0999 9.59956 80.4999 3.69956 91.9999 1.59956C101.4 -0.100439 110.4 0.999562 118.5 6.49956C123.8 9.99956 127.6 14.7996 130.1 20.5996C130.7 21.4996 130.3 21.9996 129.1 22.2996Z" fill="#00ACD7"/>
<path d="M162.2 77.5994C153.1 77.3994 144.8 74.7994 137.8 68.7994C131.9 63.6994 128.2 57.1994 127 49.4994C125.2 38.1994 128.3 28.1994 135.1 19.2994C142.4 9.69936 151.2 4.69936 163.1 2.59936C173.3 0.799359 182.9 1.79936 191.6 7.69936C199.5 13.0994 204.4 20.3994 205.7 29.9994C207.4 43.4994 203.5 54.4994 194.2 63.8994C187.6 70.5994 179.5 74.7994 170.2 76.6994C167.5 77.1994 164.8 77.2994 162.2 77.5994ZM186 37.1994C185.9 35.8994 185.9 34.8994 185.7 33.8994C183.9 23.9994 174.8 18.3994 165.3 20.5994C156 22.6994 150 28.5994 147.8 37.9994C146 45.7994 149.8 53.6994 157 56.8994C162.5 59.2994 168 58.9994 173.3 56.2994C181.2 52.1994 185.5 45.7994 186 37.1994Z" fill="#00ACD7"/>
</svg>
