<svg xmlns="http://www.w3.org/2000/svg" fill="none" viewBox="0 0 256 256" id="Hono--Streamline-Svg-Logos" height="256" width="256"><desc>Hono Streamline Icon: https://streamlinehq.com</desc><path fill="#ff5b11" d="M132.656 2.6883466666666664c0.6653333333333333 -0.08556266666666668 1.2528 0.08221333333333333 1.7615999999999998 0.5033333333333333 18.720799999999997 22.848266666666664 36.337599999999995 46.50511999999999 52.85039999999999 70.97045333333332 12.2256 18.406666666666666 22.627466666666667 37.86853333333333 31.206933333333332 58.38719999999999 13.701333333333332 36.544266666666665 6.570666666666666 68.33866666666665 -21.391733333333335 95.38239999999999 -24.466399999999997 20.67813333333333 -52.65306666666667 28.731466666666666 -84.5608 24.160266666666665 -38.139199999999995 -7.776266666666666 -64.06133333333332 -29.838933333333333 -77.76559999999999 -66.18906666666666 -3.5696 -11.833866666666667 -4.744 -23.913866666666667 -3.5231999999999997 -36.24026666666666 2.0325333333333333 -21.217066666666668 7.0658666666666665 -41.6864 15.099999999999998 -61.40693333333333 3.3477333333333332 -8.046399999999998 7.710133333333333 -15.428266666666666 13.086933333333334 -22.14693333333333 4.3864 5.2245333333333335 8.5808 10.593866666666667 12.5832 16.10693333333333 1.853333333333333 1.9373333333333334 3.7826666666666666 3.7829333333333333 5.7885333333333335 5.536533333333333C93.10213333333333 57.3688 111.3904 29.0144 132.656 2.6883466666666664Z" opacity=".993" stroke-width="2.6667"></path><path fill="#ff9758" d="M129.13333333333333 43.458666666666666c18.468799999999998 21.422133333333335 35.16293333333333 44.239999999999995 50.08186666666666 68.45386666666667 4.6776 8.012266666666665 8.536266666666666 16.401333333333334 11.5768 25.166933333333333 6.334133333333334 24.919199999999996 -0.4610666666666666 45.47253333333333 -20.385066666666667 61.65866666666666 -19.269866666666665 13.559466666666667 -40.409866666666666 17.586133333333333 -63.420533333333324 12.080266666666667 -24.814133333333334 -7.7 -39.1592 -24.394399999999997 -43.035466666666665 -50.08213333333333 -0.9405333333333333 -8.0992 -0.1016 -15.985066666666665 2.5168 -23.656799999999997 3.7338666666666662 -9.481333333333332 8.263733333333333 -18.541333333333334 13.590133333333334 -27.180266666666668 5.033333333333333 -7.3824000000000005 10.066666666666666 -14.764266666666666 15.099999999999998 -22.146666666666665 11.433866666666667 -14.702666666666666 22.75893333333333 -29.466933333333333 33.97546666666666 -44.29386666666666Z" stroke-width="2.6667"></path></svg>