<svg width="106" height="106" viewBox="0 0 106 106" fill="none" xmlns="http://www.w3.org/2000/svg">
<g clip-path="url(#clip0_177_4)">
<path d="M44.5 38.5H57.5C65.5 38.5 65.5 46.5 57.5 46.5H44.5V38.5ZM13.5 75.5H53.5V64.5H44.5V56.5H54.5C65.5 56.5 59.5 75.5 68.5 75.5H93.5V56.5H87.5V58.5C87.5 66.5 78.5 65.5 77.5 60.5C76.5 55.5 72.5 51.5 71.5 51.5C86.5 43.5 77.5 27.5 65.5 27.5H18.5V38.5H28.5V64.5H13.5V75.5Z" fill="white" stroke="white" stroke-linejoin="round"/>
<path d="M53 96C76.7482 96 96 76.7482 96 53C96 29.2518 76.7482 10 53 10C29.2518 10 10 29.2518 10 53C10 76.7482 29.2518 96 53 96Z" stroke="white" stroke-width="9"/>
<path d="M99 56L104 53L99 50V56Z" fill="white" stroke="white" stroke-width="3" stroke-linejoin="round"/>
<path d="M97.5306 64.9169L103.02 62.95L98.7012 59.0322L97.5306 64.9169Z" fill="white" stroke="white" stroke-width="3" stroke-linejoin="round"/>
<path d="M94.3504 73.3753L100.118 72.5171L96.6465 67.832L94.3504 73.3753Z" fill="white" stroke="white" stroke-width="3" stroke-linejoin="round"/>
<path d="M89.5806 81.0503L95.4047 81.3338L92.9141 76.0615L89.5806 81.0503Z" fill="white" stroke="white" stroke-width="3" stroke-linejoin="round"/>
<path d="M83.4058 87.6479L89.0627 89.0621L87.6484 83.4053L83.4058 87.6479Z" fill="white" stroke="white" stroke-width="3" stroke-linejoin="round"/>
<path d="M76.062 92.9145L81.3342 95.4051L81.0508 89.5811L76.062 92.9145Z" fill="white" stroke="white" stroke-width="3" stroke-linejoin="round"/>
<path d="M67.8317 96.6467L72.5168 100.118L73.375 94.3506L67.8317 96.6467Z" fill="white" stroke="white" stroke-width="3" stroke-linejoin="round"/>
<path d="M59.0313 98.7018L62.9491 103.02L64.916 97.5312L59.0313 98.7018Z" fill="white" stroke="white" stroke-width="3" stroke-linejoin="round"/>
<path d="M50 99L53 104L56 99H50Z" fill="white" stroke="white" stroke-width="3" stroke-linejoin="round"/>
<path d="M41.084 97.5306L43.0509 103.02L46.9688 98.7012L41.084 97.5306Z" fill="white" stroke="white" stroke-width="3" stroke-linejoin="round"/>
<path d="M32.6247 94.3504L33.4829 100.118L38.168 96.6465L32.6247 94.3504Z" fill="white" stroke="white" stroke-width="3" stroke-linejoin="round"/>
<path d="M24.9487 89.5806L24.6652 95.4047L29.9375 92.9141L24.9487 89.5806Z" fill="white" stroke="white" stroke-width="3" stroke-linejoin="round"/>
<path d="M18.3511 83.4058L16.9369 89.0627L22.5938 87.6484L18.3511 83.4058Z" fill="white" stroke="white" stroke-width="3" stroke-linejoin="round"/>
<path d="M13.0865 76.062L10.5959 81.3342L16.4199 81.0508L13.0865 76.062Z" fill="white" stroke="white" stroke-width="3" stroke-linejoin="round"/>
<path d="M9.35429 67.8317L5.88294 72.5168L11.6504 73.375L9.35429 67.8317Z" fill="white" stroke="white" stroke-width="3" stroke-linejoin="round"/>
<path d="M7.29821 59.0323L2.97955 62.9501L8.46875 64.917L7.29821 59.0323Z" fill="white" stroke="white" stroke-width="3" stroke-linejoin="round"/>
<path d="M7 50L2 53L7 56L7 50Z" fill="white" stroke="white" stroke-width="3" stroke-linejoin="round"/>
<path d="M8.46937 41.0831L2.98017 43.05L7.29883 46.9678L8.46937 41.0831Z" fill="white" stroke="white" stroke-width="3" stroke-linejoin="round"/>
<path d="M11.6496 32.6247L5.88217 33.4829L9.35352 38.168L11.6496 32.6247Z" fill="white" stroke="white" stroke-width="3" stroke-linejoin="round"/>
<path d="M16.4194 24.9497L10.5953 24.6662L13.0859 29.9385L16.4194 24.9497Z" fill="white" stroke="white" stroke-width="3" stroke-linejoin="round"/>
<path d="M22.5942 18.3521L16.9373 16.9379L18.3516 22.5947L22.5942 18.3521Z" fill="white" stroke="white" stroke-width="3" stroke-linejoin="round"/>
<path d="M29.938 13.0855L24.6658 10.5949L24.9492 16.4189L29.938 13.0855Z" fill="white" stroke="white" stroke-width="3" stroke-linejoin="round"/>
<path d="M38.1683 9.35331L33.4832 5.88197L32.625 11.6494L38.1683 9.35331Z" fill="white" stroke="white" stroke-width="3" stroke-linejoin="round"/>
<path d="M46.9687 7.29821L43.0509 2.97955L41.084 8.46875L46.9687 7.29821Z" fill="white" stroke="white" stroke-width="3" stroke-linejoin="round"/>
<path d="M56 7L53 2L50 7L56 7Z" fill="white" stroke="white" stroke-width="3" stroke-linejoin="round"/>
<path d="M64.916 8.46937L62.9491 2.98017L59.0312 7.29883L64.916 8.46937Z" fill="white" stroke="white" stroke-width="3" stroke-linejoin="round"/>
<path d="M73.3753 11.6496L72.5171 5.88217L67.832 9.35352L73.3753 11.6496Z" fill="white" stroke="white" stroke-width="3" stroke-linejoin="round"/>
<path d="M81.0513 16.4194L81.3348 10.5953L76.0625 13.0859L81.0513 16.4194Z" fill="white" stroke="white" stroke-width="3" stroke-linejoin="round"/>
<path d="M87.6489 22.5942L89.0631 16.9373L83.4062 18.3516L87.6489 22.5942Z" fill="white" stroke="white" stroke-width="3" stroke-linejoin="round"/>
<path d="M92.9135 29.938L95.4041 24.6658L89.5801 24.9492L92.9135 29.938Z" fill="white" stroke="white" stroke-width="3" stroke-linejoin="round"/>
<path d="M96.6457 38.1683L100.117 33.4832L94.3496 32.625L96.6457 38.1683Z" fill="white" stroke="white" stroke-width="3" stroke-linejoin="round"/>
<path d="M98.7018 46.9677L103.02 43.0499L97.5312 41.083L98.7018 46.9677Z" fill="white" stroke="white" stroke-width="3" stroke-linejoin="round"/>
<path d="M46 11L53 18L60 11H46Z" fill="white" stroke="white" stroke-width="6" stroke-linejoin="round"/>
<path d="M90.7812 33.3643L86.287 42.1848L95.1075 46.679L90.7812 33.3643Z" fill="white" stroke="white" stroke-width="6" stroke-linejoin="round"/>
<path d="M83.3496 82.8643L73.572 81.3156L72.0234 91.0933L83.3496 82.8643Z" fill="white" stroke="white" stroke-width="6" stroke-linejoin="round"/>
<path d="M33.9766 91.0928L32.4279 81.3152L22.6503 82.8638L33.9766 91.0928Z" fill="white" stroke="white" stroke-width="6" stroke-linejoin="round"/>
<path d="M10.8926 46.6787L19.7131 42.1844L15.2188 33.3639L10.8926 46.6787Z" fill="white" stroke="white" stroke-width="6" stroke-linejoin="round"/>
</g>
<defs>
<clipPath id="clip0_177_4">
<rect width="106" height="106" fill="white"/>
</clipPath>
</defs>
</svg>
