<svg width="1920" height="1080" viewBox="0 0 1920 1080" fill="none" xmlns="http://www.w3.org/2000/svg">
<rect width="1920" height="1080" fill="black"/>
<path d="M528.582 559.066C530.174 557.263 531.709 555.43 533.186 553.569C537.427 558.69 542.037 563.522 547.016 568.064L547.02 568.068C549.898 570.67 552.881 573.163 555.972 575.546L499.834 651.105L498.055 653.5H501.038H555.416H556.17L556.62 652.895L597.061 598.462C598.344 598.961 599.638 599.449 600.943 599.926L600.953 599.929C621.978 607.428 645.203 611.167 670.614 611.167C695.899 611.167 719.061 607.428 740.085 599.929L740.092 599.927C761.097 592.308 779.081 581.692 794.019 568.066C809.082 554.442 820.763 538.204 829.057 519.368L829.059 519.364C837.36 500.385 841.5 479.578 841.5 456.964C841.5 434.476 837.359 413.855 829.056 395.124C820.761 376.413 809.079 360.364 794.014 346.991C792.004 345.175 789.939 343.414 787.819 341.709L839.688 271.895L841.467 269.5H838.484H784.106H783.352L782.902 270.105L747.086 318.313C744.788 317.402 742.452 316.53 740.077 315.698C719.055 308.327 695.896 304.652 670.614 304.652C645.206 304.652 621.983 308.327 600.961 315.698L600.958 315.699C580.076 323.065 562.09 333.492 547.025 346.99C532.085 360.364 520.466 376.414 512.172 395.124C506.372 408.207 502.603 422.213 500.857 437.132H398.807H397.307V438.632V487.958V489.458H398.807H500.463C498.627 499.024 495.143 507.693 490.018 515.479C484.576 523.619 477.522 530.598 468.834 536.416C460.147 542.234 449.944 546.771 438.204 550.01C426.477 553.121 413.537 554.683 399.376 554.683C381.577 554.683 365.513 552.245 351.166 547.393C336.798 542.407 324.593 535.566 314.525 526.888C304.457 518.209 296.695 507.864 291.227 495.842C285.766 483.832 283.025 470.628 283.025 456.208C283.025 442.29 285.64 429.524 290.852 417.89C296.062 406.258 303.627 396.299 313.56 388.001L313.568 387.994C323.5 379.573 335.696 373.047 350.189 368.435L350.2 368.432C364.674 363.702 381.186 361.324 399.755 361.324C407.784 361.324 415.75 361.762 423.652 362.638L423.655 362.638C431.681 363.514 439.388 364.827 446.777 366.576L446.791 366.579L446.805 366.582C454.317 368.206 461.316 370.263 467.806 372.753L467.817 372.758L467.829 372.762C470.439 373.713 472.936 374.714 475.319 375.763C478.867 377.326 482.163 378.997 485.207 380.775L486.478 381.517L487.244 380.26L501.437 356.989L514.907 334.903L515.719 333.571L514.357 332.812C505.695 327.984 496.527 323.856 486.855 320.428C477.32 316.878 467.47 313.963 457.305 311.681C447.267 309.4 437.041 307.753 426.625 306.739C416.343 305.599 406.059 305.03 395.776 305.03C367.348 305.03 342.039 308.89 319.871 316.642L319.869 316.643C297.861 324.383 279.242 334.995 264.045 348.498C248.853 361.995 237.291 377.923 229.371 396.27C221.453 414.486 217.5 434.093 217.5 455.074C217.5 476.559 221.516 496.792 229.556 515.758L229.559 515.766C237.727 534.734 249.471 551.286 264.782 565.412C280.1 579.545 298.716 590.666 320.603 598.789L320.605 598.79C342.651 606.925 367.525 610.978 395.207 610.978C415.017 610.978 433.267 608.888 449.951 604.696L449.961 604.693C466.623 600.38 481.532 594.41 494.675 586.773L494.684 586.768C507.82 579.008 519.123 569.775 528.582 559.066ZM670.614 360.946C685.19 360.946 698.691 362.873 711.126 366.714L591.946 527.125C583.053 518.838 576.007 508.985 570.806 497.551C565.472 485.547 562.789 472.027 562.789 456.964C562.789 441.902 565.471 428.448 570.802 416.574C576.273 404.671 583.784 394.645 593.337 386.478L593.338 386.477C603.031 378.172 614.414 371.838 627.506 367.485C640.728 363.131 655.093 360.946 670.614 360.946ZM670.614 554.872C657.304 554.872 644.844 553.173 633.227 549.784L751.787 390.206C759.422 397.639 765.573 406.427 770.238 416.58C775.694 428.452 778.438 441.904 778.438 456.964C778.438 472.024 775.694 485.541 770.236 497.543C764.763 509.578 757.245 519.862 747.682 528.412C738.115 536.839 726.731 543.359 713.509 547.963L713.505 547.964C700.419 552.564 686.126 554.872 670.614 554.872Z" fill="white" stroke="white" stroke-width="3"/>
<path d="M288.818 714C288.182 711.788 287.288 709.833 286.136 708.136C284.985 706.409 283.576 704.955 281.909 703.773C280.273 702.561 278.394 701.636 276.273 701C274.182 700.364 271.864 700.045 269.318 700.045C264.561 700.045 260.379 701.227 256.773 703.591C253.197 705.955 250.409 709.394 248.409 713.909C246.409 718.394 245.409 723.879 245.409 730.364C245.409 736.848 246.394 742.364 248.364 746.909C250.333 751.455 253.121 754.924 256.727 757.318C260.333 759.682 264.591 760.864 269.5 760.864C273.955 760.864 277.758 760.076 280.909 758.5C284.091 756.894 286.515 754.636 288.182 751.727C289.879 748.818 290.727 745.379 290.727 741.409L294.727 742H270.727V727.182H309.682V738.909C309.682 747.091 307.955 754.121 304.5 760C301.045 765.848 296.288 770.364 290.227 773.545C284.167 776.697 277.227 778.273 269.409 778.273C260.682 778.273 253.015 776.348 246.409 772.5C239.803 768.621 234.652 763.121 230.955 756C227.288 748.848 225.455 740.364 225.455 730.545C225.455 723 226.545 716.273 228.727 710.364C230.939 704.424 234.03 699.394 238 695.273C241.97 691.152 246.591 688.015 251.864 685.864C257.136 683.712 262.848 682.636 269 682.636C274.273 682.636 279.182 683.409 283.727 684.955C288.273 686.47 292.303 688.621 295.818 691.409C299.364 694.197 302.258 697.515 304.5 701.364C306.742 705.182 308.182 709.394 308.818 714H288.818ZM355.92 778.364C348.739 778.364 342.557 776.909 337.375 774C332.223 771.061 328.254 766.909 325.466 761.545C322.678 756.152 321.284 749.773 321.284 742.409C321.284 735.227 322.678 728.924 325.466 723.5C328.254 718.076 332.178 713.848 337.239 710.818C342.33 707.788 348.299 706.273 355.148 706.273C359.754 706.273 364.042 707.015 368.011 708.5C372.011 709.955 375.496 712.152 378.466 715.091C381.466 718.03 383.799 721.727 385.466 726.182C387.133 730.606 387.966 735.788 387.966 741.727V747.045H329.011V735.045H369.739C369.739 732.258 369.133 729.788 367.92 727.636C366.708 725.485 365.027 723.803 362.875 722.591C360.754 721.348 358.284 720.727 355.466 720.727C352.527 720.727 349.92 721.409 347.648 722.773C345.405 724.106 343.648 725.909 342.375 728.182C341.102 730.424 340.451 732.924 340.42 735.682V747.091C340.42 750.545 341.057 753.53 342.33 756.045C343.633 758.561 345.466 760.5 347.83 761.864C350.193 763.227 352.996 763.909 356.239 763.909C358.39 763.909 360.36 763.606 362.148 763C363.936 762.394 365.466 761.485 366.739 760.273C368.011 759.061 368.981 757.576 369.648 755.818L387.557 757C386.648 761.303 384.784 765.061 381.966 768.273C379.178 771.455 375.572 773.939 371.148 775.727C366.754 777.485 361.678 778.364 355.92 778.364ZM400.602 777V707.182H419.375V719.364H420.102C421.375 715.03 423.511 711.758 426.511 709.545C429.511 707.303 432.966 706.182 436.875 706.182C437.845 706.182 438.89 706.242 440.011 706.364C441.133 706.485 442.117 706.652 442.966 706.864V724.045C442.057 723.773 440.799 723.53 439.193 723.318C437.587 723.106 436.117 723 434.784 723C431.936 723 429.39 723.621 427.148 724.864C424.936 726.076 423.178 727.773 421.875 729.955C420.602 732.136 419.966 734.652 419.966 737.5V777H400.602ZM481.182 804.636C474.909 804.636 469.53 803.773 465.045 802.045C460.591 800.348 457.045 798.03 454.409 795.091C451.773 792.152 450.061 788.848 449.273 785.182L467.182 782.773C467.727 784.167 468.591 785.47 469.773 786.682C470.955 787.894 472.515 788.864 474.455 789.591C476.424 790.348 478.818 790.727 481.636 790.727C485.848 790.727 489.318 789.697 492.045 787.636C494.803 785.606 496.182 782.197 496.182 777.409V764.636H495.364C494.515 766.576 493.242 768.409 491.545 770.136C489.848 771.864 487.667 773.273 485 774.364C482.333 775.455 479.152 776 475.455 776C470.212 776 465.439 774.788 461.136 772.364C456.864 769.909 453.455 766.167 450.909 761.136C448.394 756.076 447.136 749.682 447.136 741.955C447.136 734.045 448.424 727.439 451 722.136C453.576 716.833 457 712.864 461.273 710.227C465.576 707.591 470.288 706.273 475.409 706.273C479.318 706.273 482.591 706.939 485.227 708.273C487.864 709.576 489.985 711.212 491.591 713.182C493.227 715.121 494.485 717.03 495.364 718.909H496.091V707.182H515.318V777.682C515.318 783.621 513.864 788.591 510.955 792.591C508.045 796.591 504.015 799.591 498.864 801.591C493.742 803.621 487.848 804.636 481.182 804.636ZM481.591 761.455C484.712 761.455 487.348 760.682 489.5 759.136C491.682 757.561 493.348 755.318 494.5 752.409C495.682 749.47 496.273 745.955 496.273 741.864C496.273 737.773 495.697 734.227 494.545 731.227C493.394 728.197 491.727 725.848 489.545 724.182C487.364 722.515 484.712 721.682 481.591 721.682C478.409 721.682 475.727 722.545 473.545 724.273C471.364 725.97 469.712 728.333 468.591 731.364C467.47 734.394 466.909 737.894 466.909 741.864C466.909 745.894 467.47 749.379 468.591 752.318C469.742 755.227 471.394 757.485 473.545 759.091C475.727 760.667 478.409 761.455 481.591 761.455ZM562.273 778.364C555.212 778.364 549.106 776.864 543.955 773.864C538.833 770.833 534.879 766.621 532.091 761.227C529.303 755.803 527.909 749.515 527.909 742.364C527.909 735.152 529.303 728.848 532.091 723.455C534.879 718.03 538.833 713.818 543.955 710.818C549.106 707.788 555.212 706.273 562.273 706.273C569.333 706.273 575.424 707.788 580.545 710.818C585.697 713.818 589.667 718.03 592.455 723.455C595.242 728.848 596.636 735.152 596.636 742.364C596.636 749.515 595.242 755.803 592.455 761.227C589.667 766.621 585.697 770.833 580.545 773.864C575.424 776.864 569.333 778.364 562.273 778.364ZM562.364 763.364C565.576 763.364 568.258 762.455 570.409 760.636C572.561 758.788 574.182 756.273 575.273 753.091C576.394 749.909 576.955 746.288 576.955 742.227C576.955 738.167 576.394 734.545 575.273 731.364C574.182 728.182 572.561 725.667 570.409 723.818C568.258 721.97 565.576 721.045 562.364 721.045C559.121 721.045 556.394 721.97 554.182 723.818C552 725.667 550.348 728.182 549.227 731.364C548.136 734.545 547.591 738.167 547.591 742.227C547.591 746.288 548.136 749.909 549.227 753.091C550.348 756.273 552 758.788 554.182 760.636C556.394 762.455 559.121 763.364 562.364 763.364ZM625.455 683.909V693.727C625.455 696.515 624.909 699.364 623.818 702.273C622.758 705.152 621.333 707.879 619.545 710.455C617.758 713 615.803 715.167 613.682 716.955L605.136 711.909C606.652 709.515 607.985 706.864 609.136 703.955C610.318 701.045 610.909 697.667 610.909 693.818V683.909H625.455ZM687.693 727.091L669.966 728.182C669.663 726.667 669.011 725.303 668.011 724.091C667.011 722.848 665.693 721.864 664.057 721.136C662.451 720.379 660.527 720 658.284 720C655.284 720 652.754 720.636 650.693 721.909C648.633 723.152 647.602 724.818 647.602 726.909C647.602 728.576 648.269 729.985 649.602 731.136C650.936 732.288 653.223 733.212 656.466 733.909L669.102 736.455C675.89 737.848 680.951 740.091 684.284 743.182C687.617 746.273 689.284 750.333 689.284 755.364C689.284 759.939 687.936 763.955 685.239 767.409C682.572 770.864 678.905 773.561 674.239 775.5C669.602 777.409 664.254 778.364 658.193 778.364C648.951 778.364 641.587 776.439 636.102 772.591C630.648 768.712 627.451 763.439 626.511 756.773L645.557 755.773C646.133 758.591 647.527 760.742 649.739 762.227C651.951 763.682 654.784 764.409 658.239 764.409C661.633 764.409 664.36 763.758 666.42 762.455C668.511 761.121 669.572 759.409 669.602 757.318C669.572 755.561 668.83 754.121 667.375 753C665.92 751.848 663.678 750.97 660.648 750.364L648.557 747.955C641.739 746.591 636.663 744.227 633.33 740.864C630.027 737.5 628.375 733.212 628.375 728C628.375 723.515 629.587 719.652 632.011 716.409C634.466 713.167 637.905 710.667 642.33 708.909C646.784 707.152 651.996 706.273 657.966 706.273C666.784 706.273 673.723 708.136 678.784 711.864C683.875 715.591 686.845 720.667 687.693 727.091ZM731.466 777V683.909H768.193C775.254 683.909 781.269 685.258 786.239 687.955C791.208 690.621 794.996 694.333 797.602 699.091C800.239 703.818 801.557 709.273 801.557 715.455C801.557 721.636 800.223 727.091 797.557 731.818C794.89 736.545 791.027 740.227 785.966 742.864C780.936 745.5 774.845 746.818 767.693 746.818H744.284V731.045H764.511C768.299 731.045 771.42 730.394 773.875 729.091C776.36 727.758 778.208 725.924 779.42 723.591C780.663 721.227 781.284 718.515 781.284 715.455C781.284 712.364 780.663 709.667 779.42 707.364C778.208 705.03 776.36 703.227 773.875 701.955C771.39 700.652 768.239 700 764.42 700H751.148V777H731.466ZM813.977 777V707.182H832.75V719.364H833.477C834.75 715.03 836.886 711.758 839.886 709.545C842.886 707.303 846.341 706.182 850.25 706.182C851.22 706.182 852.265 706.242 853.386 706.364C854.508 706.485 855.492 706.652 856.341 706.864V724.045C855.432 723.773 854.174 723.53 852.568 723.318C850.962 723.106 849.492 723 848.159 723C845.311 723 842.765 723.621 840.523 724.864C838.311 726.076 836.553 727.773 835.25 729.955C833.977 732.136 833.341 734.652 833.341 737.5V777H813.977ZM894.648 778.364C887.587 778.364 881.481 776.864 876.33 773.864C871.208 770.833 867.254 766.621 864.466 761.227C861.678 755.803 860.284 749.515 860.284 742.364C860.284 735.152 861.678 728.848 864.466 723.455C867.254 718.03 871.208 713.818 876.33 710.818C881.481 707.788 887.587 706.273 894.648 706.273C901.708 706.273 907.799 707.788 912.92 710.818C918.072 713.818 922.042 718.03 924.83 723.455C927.617 728.848 929.011 735.152 929.011 742.364C929.011 749.515 927.617 755.803 924.83 761.227C922.042 766.621 918.072 770.833 912.92 773.864C907.799 776.864 901.708 778.364 894.648 778.364ZM894.739 763.364C897.951 763.364 900.633 762.455 902.784 760.636C904.936 758.788 906.557 756.273 907.648 753.091C908.769 749.909 909.33 746.288 909.33 742.227C909.33 738.167 908.769 734.545 907.648 731.364C906.557 728.182 904.936 725.667 902.784 723.818C900.633 721.97 897.951 721.045 894.739 721.045C891.496 721.045 888.769 721.97 886.557 723.818C884.375 725.667 882.723 728.182 881.602 731.364C880.511 734.545 879.966 738.167 879.966 742.227C879.966 746.288 880.511 749.909 881.602 753.091C882.723 756.273 884.375 758.788 886.557 760.636C888.769 762.455 891.496 763.364 894.739 763.364ZM941.602 707.182H960.966V780.455C960.966 785.848 959.905 790.212 957.784 793.545C955.663 796.879 952.617 799.318 948.648 800.864C944.708 802.409 939.996 803.182 934.511 803.182C933.845 803.182 933.208 803.167 932.602 803.136C931.966 803.136 931.299 803.121 930.602 803.091V787.955C931.117 787.985 931.572 788 931.966 788C932.33 788.03 932.723 788.045 933.148 788.045C936.269 788.045 938.451 787.379 939.693 786.045C940.966 784.742 941.602 782.773 941.602 780.136V707.182ZM951.239 698.182C948.39 698.182 945.936 697.227 943.875 695.318C941.814 693.379 940.784 691.061 940.784 688.364C940.784 685.697 941.814 683.409 943.875 681.5C945.936 679.561 948.39 678.591 951.239 678.591C954.148 678.591 956.617 679.561 958.648 681.5C960.708 683.409 961.739 685.697 961.739 688.364C961.739 691.061 960.708 693.379 958.648 695.318C956.617 697.227 954.148 698.182 951.239 698.182ZM1008.3 778.364C1001.11 778.364 994.932 776.909 989.75 774C984.598 771.061 980.629 766.909 977.841 761.545C975.053 756.152 973.659 749.773 973.659 742.409C973.659 735.227 975.053 728.924 977.841 723.5C980.629 718.076 984.553 713.848 989.614 710.818C994.705 707.788 1000.67 706.273 1007.52 706.273C1012.13 706.273 1016.42 707.015 1020.39 708.5C1024.39 709.955 1027.87 712.152 1030.84 715.091C1033.84 718.03 1036.17 721.727 1037.84 726.182C1039.51 730.606 1040.34 735.788 1040.34 741.727V747.045H981.386V735.045H1022.11C1022.11 732.258 1021.51 729.788 1020.3 727.636C1019.08 725.485 1017.4 723.803 1015.25 722.591C1013.13 721.348 1010.66 720.727 1007.84 720.727C1004.9 720.727 1002.3 721.409 1000.02 722.773C997.78 724.106 996.023 725.909 994.75 728.182C993.477 730.424 992.826 732.924 992.795 735.682V747.091C992.795 750.545 993.432 753.53 994.705 756.045C996.008 758.561 997.841 760.5 1000.2 761.864C1002.57 763.227 1005.37 763.909 1008.61 763.909C1010.77 763.909 1012.73 763.606 1014.52 763C1016.31 762.394 1017.84 761.485 1019.11 760.273C1020.39 759.061 1021.36 757.576 1022.02 755.818L1039.93 757C1039.02 761.303 1037.16 765.061 1034.34 768.273C1031.55 771.455 1027.95 773.939 1023.52 775.727C1019.13 777.485 1014.05 778.364 1008.3 778.364ZM1084.52 778.364C1077.37 778.364 1071.22 776.848 1066.07 773.818C1060.95 770.758 1057.01 766.515 1054.25 761.091C1051.52 755.667 1050.16 749.424 1050.16 742.364C1050.16 735.212 1051.54 728.939 1054.3 723.545C1057.08 718.121 1061.04 713.894 1066.16 710.864C1071.28 707.803 1077.37 706.273 1084.43 706.273C1090.52 706.273 1095.86 707.379 1100.43 709.591C1105.01 711.803 1108.63 714.909 1111.3 718.909C1113.96 722.909 1115.43 727.606 1115.7 733H1097.43C1096.92 729.515 1095.55 726.712 1093.34 724.591C1091.16 722.439 1088.3 721.364 1084.75 721.364C1081.75 721.364 1079.13 722.182 1076.89 723.818C1074.67 725.424 1072.95 727.773 1071.7 730.864C1070.46 733.955 1069.84 737.697 1069.84 742.091C1069.84 746.545 1070.45 750.333 1071.66 753.455C1072.9 756.576 1074.64 758.955 1076.89 760.591C1079.13 762.227 1081.75 763.045 1084.75 763.045C1086.96 763.045 1088.95 762.591 1090.7 761.682C1092.49 760.773 1093.96 759.455 1095.11 757.727C1096.3 755.97 1097.07 753.864 1097.43 751.409H1115.7C1115.4 756.742 1113.95 761.439 1111.34 765.5C1108.77 769.53 1105.2 772.682 1100.66 774.955C1096.11 777.227 1090.73 778.364 1084.52 778.364ZM1165.24 707.182V721.727H1123.19V707.182H1165.24ZM1132.74 690.455H1152.1V755.545C1152.1 757.333 1152.38 758.727 1152.92 759.727C1153.47 760.697 1154.22 761.379 1155.19 761.773C1156.19 762.167 1157.34 762.364 1158.65 762.364C1159.56 762.364 1160.47 762.288 1161.38 762.136C1162.28 761.955 1162.98 761.818 1163.47 761.727L1166.51 776.136C1165.54 776.439 1164.18 776.788 1162.42 777.182C1160.66 777.606 1158.53 777.864 1156.01 777.955C1151.34 778.136 1147.25 777.515 1143.74 776.091C1140.25 774.667 1137.54 772.455 1135.6 769.455C1133.66 766.455 1132.71 762.667 1132.74 758.091V690.455ZM1235.07 727.091L1217.34 728.182C1217.04 726.667 1216.39 725.303 1215.39 724.091C1214.39 722.848 1213.07 721.864 1211.43 721.136C1209.83 720.379 1207.9 720 1205.66 720C1202.66 720 1200.13 720.636 1198.07 721.909C1196.01 723.152 1194.98 724.818 1194.98 726.909C1194.98 728.576 1195.64 729.985 1196.98 731.136C1198.31 732.288 1200.6 733.212 1203.84 733.909L1216.48 736.455C1223.27 737.848 1228.33 740.091 1231.66 743.182C1234.99 746.273 1236.66 750.333 1236.66 755.364C1236.66 759.939 1235.31 763.955 1232.61 767.409C1229.95 770.864 1226.28 773.561 1221.61 775.5C1216.98 777.409 1211.63 778.364 1205.57 778.364C1196.33 778.364 1188.96 776.439 1183.48 772.591C1178.02 768.712 1174.83 763.439 1173.89 756.773L1192.93 755.773C1193.51 758.591 1194.9 760.742 1197.11 762.227C1199.33 763.682 1202.16 764.409 1205.61 764.409C1209.01 764.409 1211.73 763.758 1213.8 762.455C1215.89 761.121 1216.95 759.409 1216.98 757.318C1216.95 755.561 1216.2 754.121 1214.75 753C1213.3 751.848 1211.05 750.97 1208.02 750.364L1195.93 747.955C1189.11 746.591 1184.04 744.227 1180.7 740.864C1177.4 737.5 1175.75 733.212 1175.75 728C1175.75 723.515 1176.96 719.652 1179.39 716.409C1181.84 713.167 1185.28 710.667 1189.7 708.909C1194.16 707.152 1199.37 706.273 1205.34 706.273C1214.16 706.273 1221.1 708.136 1226.16 711.864C1231.25 715.591 1234.22 720.667 1235.07 727.091Z" fill="white"/>
<line x1="114" y1="904" x2="114" y2="177" stroke="white" stroke-width="10"/>
</svg>
