<?xml version="1.0" standalone="no"?>
<!DOCTYPE svg PUBLIC "-//W3C//DTD SVG 20010904//EN"
 "http://www.w3.org/TR/2001/REC-SVG-20010904/DTD/svg10.dtd">
<svg version="1.0" xmlns="http://www.w3.org/2000/svg"
 width="700.000000pt" height="700.000000pt" viewBox="0 0 700.000000 700.000000"
 preserveAspectRatio="xMidYMid meet">
<metadata>
Created by potrace 1.14, written by Peter Selinger 2001-2017
</metadata>
<g transform="translate(0.000000,700.000000) scale(0.100000,-0.100000)"
fill="#000000" stroke="none">
<path d="M1850 6990 c-723 -39 -1133 -167 -1403 -437 -246 -244 -367 -589
-424 -1203 -17 -179 -18 -329 -18 -1845 0 -1259 3 -1686 13 -1800 57 -664 174
-1010 431 -1266 255 -255 641 -383 1291 -429 195 -13 3334 -13 3530 0 647 45
1039 176 1293 431 252 254 380 643 426 1289 14 194 14 3332 1 3530 -54 765
-227 1184 -590 1426 -248 164 -539 244 -1080 295 -146 14 -3231 22 -3470 9z
m4700 -1615 c0 -3 -117 -162 -259 -354 l-259 -349 111 -114 c62 -62 135 -147
162 -188 108 -162 183 -347 222 -545 25 -127 25 -444 0 -570 -87 -444 -338
-788 -737 -1013 -94 -53 -274 -121 -402 -152 -365 -90 -808 -78 -1142 31 -49
16 -90 28 -91 27 -1 -2 -91 -123 -200 -270 l-198 -268 -283 0 c-187 0 -284 4
-284 10 0 6 124 177 275 381 152 204 275 374 273 378 -2 4 -48 51 -104 104
l-101 97 -99 -98 c-189 -187 -413 -310 -700 -386 -292 -76 -674 -86 -994 -25
-228 44 -498 156 -680 284 -187 130 -385 363 -475 557 -201 436 -186 949 40
1353 130 234 364 445 635 574 292 139 619 200 1009 188 292 -9 506 -45 741
-123 141 -47 365 -148 357 -161 -3 -5 -66 -109 -142 -233 -75 -124 -139 -229
-142 -233 -3 -4 -21 2 -41 14 -99 58 -304 123 -497 155 -145 25 -475 25 -610
0 -417 -77 -689 -288 -798 -619 -26 -80 -31 -110 -35 -237 -3 -105 0 -167 11
-225 72 -384 374 -659 819 -747 160 -31 437 -31 586 1 338 72 567 244 658 497
43 116 98 104 -476 104 l-500 0 0 260 0 260 505 0 505 0 4 23 c3 12 10 51 16
87 30 165 118 376 222 528 75 110 254 285 367 361 302 200 631 291 1056 291
263 0 488 -34 678 -103 l67 -25 178 239 177 239 287 0 c159 0 288 -2 288 -5z"/>
<path d="M4669 4460 c-423 -67 -712 -304 -811 -665 -18 -68 -22 -106 -22 -255
0 -149 4 -187 22 -255 40 -144 127 -299 215 -384 l36 -34 229 309 c711 956
920 1239 917 1243 -3 2 -39 12 -82 23 -89 22 -405 34 -504 18z"/>
<path d="M5100 3419 c-311 -419 -566 -767 -568 -773 -5 -23 191 -55 338 -56
306 -1 582 98 767 274 125 118 199 238 250 403 25 82 27 100 27 273 0 173 -2
191 -28 275 -15 50 -45 124 -67 165 -40 74 -132 200 -147 200 -4 0 -261 -343
-572 -761z"/>
</g>
</svg>
